<svg width="87" height="94" viewBox="0 0 87 94" fill="none" xmlns="http://www.w3.org/2000/svg">
<path d="M0 72.5152V58.3438L36.8134 79.6852V93.8619L0 72.5152ZM49.7076 58.0315L12.2694 36.337V14.719L6.37096 18.2402L0 22.0427V43.502L36.8134 64.8485L49.7076 72.3258V94.0153L55.5197 90.5454L61.9822 86.6763V65.1505L49.7076 58.0315ZM24.8944 7.16502V28.9671L74.6833 57.8321V79.0762L80.272 75.7445L86.6733 71.9215V50.7334L74.6833 43.7783L49.8601 29.3869L36.9302 21.8891V0L30.6152 3.76676L24.8944 7.16502ZM49.8601 0.332663L86.6733 21.6793V36.2755L49.8601 14.9288V0.332663Z" fill="currentColor"></path>
</svg>